<svg xmlns="http://www.w3.org/2000/svg" xmlns:xlink="http://www.w3.org/1999/xlink" viewBox="0 0 40 40"><defs><clipPath id="clip-path"><circle fill="none" cx="20" cy="20" r="20"/></clipPath></defs><g id="Capa_2" data-name="Capa 2"><g id="Capa_1-2" data-name="Capa 1"><g clipPath="url(#clip-path)"><path fill="#fdce24" d="M-20.47,30.8l0-13.7c0-2.64,0-5.28,0-7.92A1.85,1.85,0,0,1-19.18,9H58.94a2.26,2.26,0,0,1,1.53.23V30.8a1.12,1.12,0,0,1-.81.25H-18.87C-19.41,31.05-20,31.2-20.47,30.8Z"/><path fill="#c7483d" d="M-20.47,30.8H60.47c0,2.51.05,5,0,7.54a3.32,3.32,0,0,1-3.26,3.07c-.19,0-.37,0-.56,0H-16.67c-2,0-3.25-.84-3.71-2.45a2.18,2.18,0,0,1-.11-.62C-20.49,35.83-20.48,33.31-20.47,30.8Z"/><path fill="#c7483d" d="M60.47,9.18H-20.48c0-2.49,0-5,0-7.47a3.32,3.32,0,0,1,3.21-3.12c.21,0,.42,0,.64,0H56.64c2,0,3.27.83,3.73,2.43a2.33,2.33,0,0,1,.12.69Q60.49,5.45,60.47,9.18Z"/></g></g></g></svg>